<svg viewBox="0 0 1440 130" version="1.1"
  xmlns="http://www.w3.org/2000/svg">
  <defs>
    <linearGradient id="sw-gradient-0" x1="0" x2="0" y1="1" y2="0">
      <stop stop-color="rgb(102, 190, 234)" offset="0%"></stop>
      <stop stop-color="rgb(244, 245, 247)" offset="100%"></stop>
    </linearGradient>
  </defs>
  <path fill="url(#sw-gradient-0)" d="M0,104L60,86.7C120,69,240,35,360,26C480,17,600,35,720,47.7C840,61,960,69,1080,60.7C1200,52,1320,26,1440,13C1560,0,1680,0,1800,4.3C1920,9,2040,17,2160,17.3C2280,17,2400,9,2520,23.8C2640,39,2760,78,2880,95.3C3000,113,3120,108,3240,99.7C3360,91,3480,78,3600,69.3C3720,61,3840,56,3960,54.2C4080,52,4200,52,4320,54.2C4440,56,4560,61,4680,65C4800,69,4920,74,5040,71.5C5160,69,5280,61,5400,47.7C5520,35,5640,17,5760,8.7C5880,0,6000,0,6120,17.3C6240,35,6360,69,6480,80.2C6600,91,6720,78,6840,60.7C6960,43,7080,22,7200,21.7C7320,22,7440,43,7560,47.7C7680,52,7800,39,7920,28.2C8040,17,8160,9,8280,15.2C8400,22,8520,43,8580,54.2L8640,65L8640,130L8580,130C8520,130,8400,130,8280,130C8160,130,8040,130,7920,130C7800,130,7680,130,7560,130C7440,130,7320,130,7200,130C7080,130,6960,130,6840,130C6720,130,6600,130,6480,130C6360,130,6240,130,6120,130C6000,130,5880,130,5760,130C5640,130,5520,130,5400,130C5280,130,5160,130,5040,130C4920,130,4800,130,4680,130C4560,130,4440,130,4320,130C4200,130,4080,130,3960,130C3840,130,3720,130,3600,130C3480,130,3360,130,3240,130C3120,130,3000,130,2880,130C2760,130,2640,130,2520,130C2400,130,2280,130,2160,130C2040,130,1920,130,1800,130C1680,130,1560,130,1440,130C1320,130,1200,130,1080,130C960,130,840,130,720,130C600,130,480,130,360,130C240,130,120,130,60,130L0,130Z">
  </path>
</svg>